<svg width="80" height="82" viewBox="0 0 80 82" fill="none" xmlns="http://www.w3.org/2000/svg">
<path d="M38 2.1547C39.2376 1.44017 40.7624 1.44017 42 2.1547L72.641 19.8453C73.8786 20.5598 74.641 21.8803 74.641 23.3094V58.6906C74.641 60.1197 73.8786 61.4402 72.641 62.1547L42 79.8453C40.7624 80.5598 39.2376 80.5598 38 79.8453L7.35898 62.1547C6.12138 61.4402 5.35898 60.1197 5.35898 58.6906V23.3094C5.35898 21.8803 6.12138 20.5598 7.35898 19.8453L38 2.1547Z" fill="#3B3D4F"/>
<path opacity="0.5" d="M38 2.1547C39.2376 1.44017 40.7624 1.44017 42 2.1547L72.641 19.8453C73.8786 20.5598 74.641 21.8803 74.641 23.3094V58.6906C74.641 60.1197 73.8786 61.4402 72.641 62.1547L42 79.8453C40.7624 80.5598 39.2376 80.5598 38 79.8453L7.35898 62.1547C6.12138 61.4402 5.35898 60.1197 5.35898 58.6906V23.3094C5.35898 21.8803 6.12138 20.5598 7.35898 19.8453L38 2.1547Z" fill="#3B3D4F" stroke="#49BD8C" stroke-width="3"/>
<g opacity="0.7" clip-path="url(#clip0_1_1108)">
<path d="M56.4844 21C54.9585 21 53.67 21.9827 53.1845 23.3438H49.375C49.1437 23.3438 48.9172 23.4124 48.725 23.5406L44.4809 26.3696C44.0341 26.2316 43.5812 26.1077 43.1177 26.011C44.0073 27.727 44.6811 30.1177 45.1398 32.7188H52.8168C51.3947 30.5044 49.4122 28.6904 47.0779 27.4551L49.7296 25.6875H53.1845C53.67 27.0486 54.9585 28.0312 56.4844 28.0312C58.4229 28.0312 60 26.4541 60 24.5156C60 22.5771 58.4229 21 56.4844 21Z" fill="#4AC18E"/>
<path d="M40 25.6875C39.2374 25.6875 38.0157 28.5098 37.2321 32.7188H42.7679C41.9843 28.5098 40.7626 25.6875 40 25.6875Z" fill="#4AC18E"/>
<path d="M36.8613 35.0625C36.6724 36.5258 36.5472 38.1829 36.5045 39.8281H43.4955C43.4528 38.1829 43.3276 36.5258 43.1387 35.0625H36.8613Z" fill="#4AC18E"/>
<path d="M25.9412 35.0625C25.3299 36.5237 24.9515 38.1799 24.8251 39.8281H34.1599C34.1998 38.3026 34.3143 36.6332 34.5065 35.0625H25.9412Z" fill="#4AC18E"/>
<path d="M43.4955 42.1719H36.5045C36.5472 43.8171 36.6724 45.4742 36.8613 46.9375H43.1387C43.3276 45.4742 43.4528 43.8171 43.4955 42.1719Z" fill="#4AC18E"/>
<path d="M54.0591 46.9375C54.6704 45.4766 55.0485 43.8201 55.1749 42.1719H45.8401C45.8002 43.6974 45.6857 45.3668 45.4935 46.9375H54.0591Z" fill="#4AC18E"/>
<path d="M40 56.3125C40.7626 56.3125 41.9843 53.4902 42.7679 49.2812H37.2321C38.0157 53.4902 39.2374 56.3125 40 56.3125Z" fill="#4AC18E"/>
<path d="M36.8823 26.011C32.8201 26.8594 29.3561 29.3356 27.1832 32.7188H34.8602C35.3189 30.1177 35.9927 27.727 36.8823 26.011Z" fill="#4AC18E"/>
<path d="M23.5938 61C25.1196 61 26.4081 60.0173 26.8936 58.6562H30.625C30.8563 58.6562 31.0828 58.5876 31.275 58.4594L35.5191 55.6304C35.9659 55.7684 36.4188 55.8923 36.8823 55.989C35.9927 54.2727 35.3189 51.8823 34.8602 49.2812H27.1832C28.6057 51.4956 30.5881 53.3096 32.9221 54.5449L30.2704 56.3125H26.8936C26.4081 54.9514 25.1196 53.9688 23.5938 53.9688C21.6553 53.9688 20 55.5459 20 57.4844C20 59.4229 21.6553 61 23.5938 61Z" fill="#4AC18E"/>
<path d="M24.8251 42.1719C24.9515 43.8201 25.3299 45.4766 25.9412 46.9375H34.5065C34.3143 45.3668 34.1998 43.6974 34.1599 42.1719H24.8251Z" fill="#4AC18E"/>
<path d="M43.1177 55.989C47.1799 55.1406 50.6439 52.6644 52.8168 49.2812H45.1398C44.6811 51.8823 44.0073 54.273 43.1177 55.989Z" fill="#4AC18E"/>
<path d="M55.1749 39.8281C55.0485 38.1799 54.6704 36.5237 54.0591 35.0625H45.4935C45.6857 36.6332 45.8002 38.3026 45.8401 39.8281H55.1749Z" fill="#4AC18E"/>
</g>
<defs>
<clipPath id="clip0_1_1108">
<rect width="40" height="40" fill="white" transform="translate(20 21)"/>
</clipPath>
</defs>
</svg>
