<svg viewBox="0 0 80 82" fill="none" xmlns="http://www.w3.org/2000/svg">
<path d="M38 2.1547C39.2376 1.44017 40.7624 1.44017 42 2.1547L72.641 19.8453C73.8786 20.5598 74.641 21.8803 74.641 23.3094V58.6906C74.641 60.1197 73.8786 61.4402 72.641 62.1547L42 79.8453C40.7624 80.5598 39.2376 80.5598 38 79.8453L7.35898 62.1547C6.12138 61.4402 5.35898 60.1197 5.35898 58.6906V23.3094C5.35898 21.8803 6.12138 20.5598 7.35898 19.8453L38 2.1547Z" fill="#3B3D4F"/>
<path opacity="1" d="M38 2.1547C39.2376 1.44017 40.7624 1.44017 42 2.1547L72.641 19.8453C73.8786 20.5598 74.641 21.8803 74.641 23.3094V58.6906C74.641 60.1197 73.8786 61.4402 72.641 62.1547L42 79.8453C40.7624 80.5598 39.2376 80.5598 38 79.8453L7.35898 62.1547C6.12138 61.4402 5.35898 60.1197 5.35898 58.6906V23.3094C5.35898 21.8803 6.12138 20.5598 7.35898 19.8453L38 2.1547Z" fill="#3B3D4F" stroke="#49BD8C" stroke-width="3"/>
<g opacity="1">
<path d="M58.75 30.85C58.7329 30.4884 58.5898 30.1442 58.3455 29.8771C58.1012 29.6099 57.7711 29.4367 57.4125 29.3875L41.1625 26.1875C40.42 26.0377 39.655 26.0377 38.9125 26.1875L22.6625 29.3875C22.2903 29.4201 21.9425 29.5861 21.6829 29.8548C21.4234 30.1235 21.2697 30.4769 21.25 30.85V50.325C21.3059 51.0637 21.599 51.7645 22.0855 52.3231C22.5721 52.8817 23.226 53.2682 23.95 53.425L37.5 57.7875C39.1036 58.2873 40.8214 58.2873 42.425 57.7875L56.0125 53.425C56.7434 53.2753 57.4058 52.8919 57.8996 52.3327C58.3934 51.7735 58.6919 51.0688 58.75 50.325V30.85ZM39.3625 28.6375C39.7749 28.5533 40.2001 28.5533 40.6125 28.6375L52.6625 31L41.925 33.6875C40.6607 33.9999 39.3393 33.9999 38.075 33.6875L27.3375 31L39.3625 28.6375ZM23.75 32.675L37.5 36.1125C37.9101 36.2228 38.328 36.3022 38.75 36.35V48C38.6 48 38.45 48 38.3 47.9L24.725 43.5C24.0375 43.2875 23.75 42.925 23.75 42.775V32.675ZM24.725 51C24.0375 50.7875 23.75 50.425 23.75 50.2875V45.7875L23.95 45.875L37.5 50.275C37.9081 50.405 38.3261 50.5012 38.75 50.5625V55.5625C38.5976 55.5411 38.4471 55.5077 38.3 55.4625L24.725 51Z" fill="#4AC18E"/>
</g>
</svg>
