<svg width="80" height="82" viewBox="0 0 80 82" fill="none" xmlns="http://www.w3.org/2000/svg">
<path d="M38 2.1547C39.2376 1.44017 40.7624 1.44017 42 2.1547L72.641 19.8453C73.8786 20.5598 74.641 21.8803 74.641 23.3094V58.6906C74.641 60.1197 73.8786 61.4402 72.641 62.1547L42 79.8453C40.7624 80.5598 39.2376 80.5598 38 79.8453L7.35898 62.1547C6.12138 61.4402 5.35898 60.1197 5.35898 58.6906V23.3094C5.35898 21.8803 6.12138 20.5598 7.35898 19.8453L38 2.1547Z" fill="#3B3D4F"/>
<path opacity="0.5" d="M38 2.1547C39.2376 1.44017 40.7624 1.44017 42 2.1547L72.641 19.8453C73.8786 20.5598 74.641 21.8803 74.641 23.3094V58.6906C74.641 60.1197 73.8786 61.4402 72.641 62.1547L42 79.8453C40.7624 80.5598 39.2376 80.5598 38 79.8453L7.35898 62.1547C6.12138 61.4402 5.35898 60.1197 5.35898 58.6906V23.3094C5.35898 21.8803 6.12138 20.5598 7.35898 19.8453L38 2.1547Z" fill="#3B3D4F" stroke="#49BD8C" stroke-width="3"/>
<g opacity="0.7" clip-path="url(#clip0_1_1052)">
<path d="M58.6956 39.6956H56.8904C56.2533 31.3867 49.6133 24.7467 41.3044 24.1095V22.3044C41.3044 21.5838 40.7205 21 40 21C39.2795 21 38.6956 21.5838 38.6956 22.3044V24.1096C30.3867 24.7467 23.7467 31.3867 23.1095 39.6956H21.3044C20.5838 39.6956 20 40.2795 20 41C20 41.7205 20.5838 42.3044 21.3044 42.3044H23.1096C23.7467 50.6134 30.3867 57.2534 38.6957 57.8905V59.6957C38.6957 60.4162 39.2795 61.0001 40.0001 61.0001C40.7206 61.0001 41.3045 60.4162 41.3045 59.6957V57.8905C49.6134 57.2534 56.2534 50.6134 56.8905 42.3044H58.6958C59.4159 42.3044 60.0002 41.7205 60.0002 41C60 40.2795 59.4157 39.6956 58.6956 39.6956ZM41.3044 26.7183C48.1758 27.3412 53.6588 32.8243 54.2818 39.6957H51.6623C51.0584 34.2639 46.7362 29.9418 41.3045 29.3378L41.3044 26.7183ZM38.6956 26.7183V29.3378C33.2638 29.9417 28.9417 34.2638 28.3377 39.6956H25.7183C26.3412 32.8243 31.8243 27.3412 38.6956 26.7183ZM38.6957 55.2817C31.8243 54.6587 26.3412 49.1757 25.7182 42.3043H28.3377C28.9416 47.7361 33.2638 52.0582 38.6956 52.6622L38.6957 55.2817ZM40 47.5217C39.2795 47.5217 38.6956 48.1055 38.6956 48.8261V50.0263C34.7056 49.4516 31.5485 46.2944 30.9737 42.3044H32.1738C32.8944 42.3044 33.4782 41.7205 33.4782 41C33.4782 40.2795 32.8944 39.6956 32.1738 39.6956H30.9737C31.5484 35.7056 34.7055 32.5485 38.6956 31.9737V33.1738C38.6956 33.8944 39.2795 34.4782 40 34.4782C40.7205 34.4782 41.3044 33.8944 41.3044 33.1738V31.9737C45.2944 32.5484 48.4515 35.7055 49.0263 39.6956H47.8261C47.1055 39.6956 46.5217 40.2795 46.5217 41C46.5217 41.7205 47.1055 42.2956 47.8261 42.2956H49.0263C48.4516 46.2856 45.2944 49.4515 41.3044 50.0263V48.8261C41.3044 48.1055 40.7205 47.5217 40 47.5217ZM41.3044 55.2817V52.6622C46.7362 52.0583 51.0583 47.7274 51.6623 42.2955H54.2818C53.6588 49.167 48.1757 54.6587 41.3044 55.2817Z" fill="#4AC18E"/>
<path d="M40 37.087C37.8423 37.087 36.087 38.8423 36.087 41C36.087 43.1577 37.8423 44.913 40 44.913C42.1577 44.913 43.913 43.1577 43.913 41C43.913 38.8423 42.1577 37.087 40 37.087Z" fill="#4AC18E"/>
</g>
<defs>
<clipPath id="clip0_1_1052">
<rect width="40" height="40" fill="white" transform="translate(20 21)"/>
</clipPath>
</defs>
</svg>
